STARTFONT 2.1
COMMENT This font is still under development.
COMMENT You can use, copy, modify, distribute this file for free.
COMMENT 
COMMENT 92.12.01 created by Takahashi N. <ntakahas@etl.go.jp>
COMMENT 94.09.14 modified by Takahashi N. <ntakahas@etl.go.jp>
COMMENT   - changed to viscii.
FONT -ETL-Fixed-Medium-R-Normal--16-160-72-72-C-80-VISCII1.1-1
SIZE 16 72 72
FONTBOUNDINGBOX 8 16 0 -2
STARTPROPERTIES 18
FONTNAME_REGISTRY ""
FOUNDRY "ETL"
FAMILY_NAME "Fixed"
WEIGHT_NAME "Medium"
SLANT "R"
SETWIDTH_NAME "Normal"
ADD_STYLE_NAME ""
PIXEL_SIZE 16
POINT_SIZE 160
RESOLUTION_X 72
RESOLUTION_Y 72
SPACING "C"
AVERAGE_WIDTH 80
CHARSET_REGISTRY "VISCII1"
CHARSET_ENCODING "1"
DEFAULT_CHAR 32
FONT_DESCENT 2
FONT_ASCENT 14
ENDPROPERTIES
CHARS 229
STARTCHAR CAPITAL LETTER A
ENCODING 2
SWIDTH 500 0
DWIDTH 8 0
BBX 8 16 0 -2
BITMAP
38
08
52
24
18
24
24
42
42
7e
42
42
42
42
00
00
ENDCHAR
STARTCHAR CAPITAL LETTER A
ENCODING 5
SWIDTH 500 0
DWIDTH 8 0
BBX 8 16 0 -2
BITMAP
32
4c
42
24
18
24
24
42
42
7e
42
42
42
42
00
00
ENDCHAR
STARTCHAR CAPITAL LETTER A
ENCODING 6
SWIDTH 500 0
DWIDTH 8 0
BBX 8 16 0 -2
BITMAP
32
4c
18
24
5a
24
24
42
42
7e
42
42
42
42
00
00
ENDCHAR
STARTCHAR CAPITAL LETTER Y
ENCODING 20
SWIDTH 500 0
DWIDTH 8 0
BBX 8 16 0 -2
BITMAP
1c
04
08
00
41
41
22
22
14
08
08
08
08
08
00
00
ENDCHAR
STARTCHAR CAPITAL LETTER Y
ENCODING 25
SWIDTH 500 0
DWIDTH 8 0
BBX 8 16 0 -2
BITMAP
00
32
4c
00
41
41
22
22
14
08
08
08
08
08
00
00
ENDCHAR
STARTCHAR CAPITAL LETTER Y
ENCODING 30
SWIDTH 500 0
DWIDTH 8 0
BBX 8 16 0 -2
BITMAP
00
00
00
00
41
41
22
22
14
08
08
08
08
08
00
18
ENDCHAR
STARTCHAR SPACE
ENCODING 32
SWIDTH 500 0
DWIDTH 8 0
BBX 8 16 0 -2
BITMAP
00
00
00
00
00
00
00
00
00
00
00
00
00
00
00
00
ENDCHAR
STARTCHAR EXCLAMATION MARK
ENCODING 33
SWIDTH 500 0
DWIDTH 8 0
BBX 8 16 0 -2
BITMAP
00
00
00
00
08
08
08
08
08
08
08
00
08
08
00
00
ENDCHAR
STARTCHAR QUOTATION MARK
ENCODING 34
SWIDTH 500 0
DWIDTH 8 0
BBX 8 16 0 -2
BITMAP
00
00
66
22
22
44
00
00
00
00
00
00
00
00
00
00
ENDCHAR
STARTCHAR NUMBER SIGN
ENCODING 35
SWIDTH 500 0
DWIDTH 8 0
BBX 8 16 0 -2
BITMAP
00
00
00
00
12
12
12
7e
24
24
7e
48
48
48
00
00
ENDCHAR
STARTCHAR DOLLAR SIGN
ENCODING 36
SWIDTH 500 0
DWIDTH 8 0
BBX 8 16 0 -2
BITMAP
00
00
00
00
08
3e
49
48
38
0e
09
49
3e
08
00
00
ENDCHAR
STARTCHAR PERCENT SIGN
ENCODING 37
SWIDTH 500 0
DWIDTH 8 0
BBX 8 16 0 -2
BITMAP
00
00
00
00
31
4a
4a
34
08
08
16
29
29
46
00
00
ENDCHAR
STARTCHAR AMPERSAND
ENCODING 38
SWIDTH 500 0
DWIDTH 8 0
BBX 8 16 0 -2
BITMAP
00
00
00
00
1c
22
22
22
1c
39
45
42
46
39
00
00
ENDCHAR
STARTCHAR APOSTROPHE
ENCODING 39
SWIDTH 500 0
DWIDTH 8 0
BBX 8 16 0 -2
BITMAP
00
00
18
08
08
10
00
00
00
00
00
00
00
00
00
00
ENDCHAR
STARTCHAR LEFT PARENTHESIS
ENCODING 40
SWIDTH 500 0
DWIDTH 8 0
BBX 8 16 0 -2
BITMAP
00
00
00
04
08
08
10
10
10
10
10
10
08
08
04
00
ENDCHAR
STARTCHAR RIGHT PARENTHESIS
ENCODING 41
SWIDTH 500 0
DWIDTH 8 0
BBX 8 16 0 -2
BITMAP
00
00
00
20
10
10
08
08
08
08
08
08
10
10
20
00
ENDCHAR
STARTCHAR ASTERISK
ENCODING 42
SWIDTH 500 0
DWIDTH 8 0
BBX 8 16 0 -2
BITMAP
00
00
00
00
00
00
08
49
2a
1c
2a
49
08
00
00
00
ENDCHAR
STARTCHAR PLUS SIGN
ENCODING 43
SWIDTH 500 0
DWIDTH 8 0
BBX 8 16 0 -2
BITMAP
00
00
00
00
00
00
08
08
08
7f
08
08
08
00
00
00
ENDCHAR
STARTCHAR COMMA
ENCODING 44
SWIDTH 500 0
DWIDTH 8 0
BBX 8 16 0 -2
BITMAP
00
00
00
00
00
00
00
00
00
00
00
00
18
08
08
10
ENDCHAR
STARTCHAR HYPHEN, MINUS SIGN
ENCODING 45
SWIDTH 500 0
DWIDTH 8 0
BBX 8 16 0 -2
BITMAP
00
00
00
00
00
00
00
00
00
7e
00
00
00
00
00
00
ENDCHAR
STARTCHAR FULL STOP
ENCODING 46
SWIDTH 500 0
DWIDTH 8 0
BBX 8 16 0 -2
BITMAP
00
00
00
00
00
00
00
00
00
00
00
00
18
18
00
00
ENDCHAR
STARTCHAR SOLIDUS
ENCODING 47
SWIDTH 500 0
DWIDTH 8 0
BBX 8 16 0 -2
BITMAP
00
00
00
00
02
02
04
08
08
10
10
20
40
40
00
00
ENDCHAR
STARTCHAR DIGIT ZERO
ENCODING 48
SWIDTH 500 0
DWIDTH 8 0
BBX 8 16 0 -2
BITMAP
00
00
00
00
18
24
42
42
42
42
42
42
24
18
00
00
ENDCHAR
STARTCHAR DIGIT ONE
ENCODING 49
SWIDTH 500 0
DWIDTH 8 0
BBX 8 16 0 -2
BITMAP
00
00
00
00
08
18
28
08
08
08
08
08
08
3e
00
00
ENDCHAR
STARTCHAR DIGIT TWO
ENCODING 50
SWIDTH 500 0
DWIDTH 8 0
BBX 8 16 0 -2
BITMAP
00
00
00
00
3c
42
42
02
0c
10
20
40
40
7e
00
00
ENDCHAR
STARTCHAR DIGIT THREE
ENCODING 51
SWIDTH 500 0
DWIDTH 8 0
BBX 8 16 0 -2
BITMAP
00
00
00
00
3c
42
42
02
1c
02
02
42
42
3c
00
00
ENDCHAR
STARTCHAR DIGIT FOUR
ENCODING 52
SWIDTH 500 0
DWIDTH 8 0
BBX 8 16 0 -2
BITMAP
00
00
00
00
04
0c
14
24
44
44
7e
04
04
04
00
00
ENDCHAR
STARTCHAR DIGIT FIVE
ENCODING 53
SWIDTH 500 0
DWIDTH 8 0
BBX 8 16 0 -2
BITMAP
00
00
00
00
7e
40
40
40
7c
02
02
02
42
3c
00
00
ENDCHAR
STARTCHAR DIGIT SIX
ENCODING 54
SWIDTH 500 0
DWIDTH 8 0
BBX 8 16 0 -2
BITMAP
00
00
00
00
1c
20
40
40
7c
42
42
42
42
3c
00
00
ENDCHAR
STARTCHAR DIGIT SEVEN
ENCODING 55
SWIDTH 500 0
DWIDTH 8 0
BBX 8 16 0 -2
BITMAP
00
00
00
00
7e
02
02
04
04
04
08
08
08
08
00
00
ENDCHAR
STARTCHAR DIGIT EIGHT
ENCODING 56
SWIDTH 500 0
DWIDTH 8 0
BBX 8 16 0 -2
BITMAP
00
00
00
00
3c
42
42
42
3c
42
42
42
42
3c
00
00
ENDCHAR
STARTCHAR DIGIT NINE
ENCODING 57
SWIDTH 500 0
DWIDTH 8 0
BBX 8 16 0 -2
BITMAP
00
00
00
00
3c
42
42
42
3e
02
02
02
04
38
00
00
ENDCHAR
STARTCHAR COLON
ENCODING 58
SWIDTH 500 0
DWIDTH 8 0
BBX 8 16 0 -2
BITMAP
00
00
00
00
00
00
18
18
00
00
00
18
18
00
00
00
ENDCHAR
STARTCHAR SEMICOLON
ENCODING 59
SWIDTH 500 0
DWIDTH 8 0
BBX 8 16 0 -2
BITMAP
00
00
00
00
00
00
18
18
00
00
00
18
08
08
10
00
ENDCHAR
STARTCHAR LESS-THAN SIGN
ENCODING 60
SWIDTH 500 0
DWIDTH 8 0
BBX 8 16 0 -2
BITMAP
00
00
00
00
00
02
04
08
10
20
10
08
04
02
00
00
ENDCHAR
STARTCHAR EQUALS SIGN
ENCODING 61
SWIDTH 500 0
DWIDTH 8 0
BBX 8 16 0 -2
BITMAP
00
00
00
00
00
00
00
7e
00
00
00
7e
00
00
00
00
ENDCHAR
STARTCHAR GREATER-THAN SIGN
ENCODING 62
SWIDTH 500 0
DWIDTH 8 0
BBX 8 16 0 -2
BITMAP
00
00
00
00
00
40
20
10
08
04
08
10
20
40
00
00
ENDCHAR
STARTCHAR QUESTION MARK
ENCODING 63
SWIDTH 500 0
DWIDTH 8 0
BBX 8 16 0 -2
BITMAP
00
00
00
00
3c
42
42
02
04
08
08
00
08
08
00
00
ENDCHAR
STARTCHAR COMMERCIAL AT
ENCODING 64
SWIDTH 500 0
DWIDTH 8 0
BBX 8 16 0 -2
BITMAP
00
00
00
00
1c
22
4a
56
52
52
52
4e
20
1e
00
00
ENDCHAR
STARTCHAR CAPITAL LETTER A
ENCODING 65
SWIDTH 500 0
DWIDTH 8 0
BBX 8 16 0 -2
BITMAP
00
00
00
00
18
24
24
42
42
7e
42
42
42
42
00
00
ENDCHAR
STARTCHAR CAPITAL LETTER B
ENCODING 66
SWIDTH 500 0
DWIDTH 8 0
BBX 8 16 0 -2
BITMAP
00
00
00
00
7c
42
42
42
7c
42
42
42
42
7c
00
00
ENDCHAR
STARTCHAR CAPITAL LETTER C
ENCODING 67
SWIDTH 500 0
DWIDTH 8 0
BBX 8 16 0 -2
BITMAP
00
00
00
00
3c
42
42
40
40
40
40
42
42
3c
00
00
ENDCHAR
STARTCHAR CAPITAL LETTER D
ENCODING 68
SWIDTH 500 0
DWIDTH 8 0
BBX 8 16 0 -2
BITMAP
00
00
00
00
78
44
42
42
42
42
42
42
44
78
00
00
ENDCHAR
STARTCHAR CAPITAL LETTER E
ENCODING 69
SWIDTH 500 0
DWIDTH 8 0
BBX 8 16 0 -2
BITMAP
00
00
00
00
7e
40
40
40
7c
40
40
40
40
7e
00
00
ENDCHAR
STARTCHAR CAPITAL LETTER F
ENCODING 70
SWIDTH 500 0
DWIDTH 8 0
BBX 8 16 0 -2
BITMAP
00
00
00
00
7e
40
40
40
7c
40
40
40
40
40
00
00
ENDCHAR
STARTCHAR CAPITAL LETTER G
ENCODING 71
SWIDTH 500 0
DWIDTH 8 0
BBX 8 16 0 -2
BITMAP
00
00
00
00
3c
42
42
40
40
4e
42
42
46
3a
00
00
ENDCHAR
STARTCHAR CAPITAL LETTER H
ENCODING 72
SWIDTH 500 0
DWIDTH 8 0
BBX 8 16 0 -2
BITMAP
00
00
00
00
42
42
42
42
7e
42
42
42
42
42
00
00
ENDCHAR
STARTCHAR CAPITAL LETTER I
ENCODING 73
SWIDTH 500 0
DWIDTH 8 0
BBX 8 16 0 -2
BITMAP
00
00
00
00
3e
08
08
08
08
08
08
08
08
3e
00
00
ENDCHAR
STARTCHAR CAPITAL LETTER J
ENCODING 74
SWIDTH 500 0
DWIDTH 8 0
BBX 8 16 0 -2
BITMAP
00
00
00
00
1f
04
04
04
04
04
04
44
44
38
00
00
ENDCHAR
STARTCHAR CAPITAL LETTER K
ENCODING 75
SWIDTH 500 0
DWIDTH 8 0
BBX 8 16 0 -2
BITMAP
00
00
00
00
42
44
48
50
60
60
50
48
44
42
00
00
ENDCHAR
STARTCHAR CAPITAL LETTER L
ENCODING 76
SWIDTH 500 0
DWIDTH 8 0
BBX 8 16 0 -2
BITMAP
00
00
00
00
40
40
40
40
40
40
40
40
40
7e
00
00
ENDCHAR
STARTCHAR CAPITAL LETTER M
ENCODING 77
SWIDTH 500 0
DWIDTH 8 0
BBX 8 16 0 -2
BITMAP
00
00
00
00
42
42
66
66
5a
5a
42
42
42
42
00
00
ENDCHAR
STARTCHAR CAPITAL LETTER N
ENCODING 78
SWIDTH 500 0
DWIDTH 8 0
BBX 8 16 0 -2
BITMAP
00
00
00
00
42
62
62
52
52
4a
4a
46
46
42
00
00
ENDCHAR
STARTCHAR CAPITAL LETTER O
ENCODING 79
SWIDTH 500 0
DWIDTH 8 0
BBX 8 16 0 -2
BITMAP
00
00
00
00
3c
42
42
42
42
42
42
42
42
3c
00
00
ENDCHAR
STARTCHAR CAPITAL LETTER P
ENCODING 80
SWIDTH 500 0
DWIDTH 8 0
BBX 8 16 0 -2
BITMAP
00
00
00
00
7c
42
42
42
7c
40
40
40
40
40
00
00
ENDCHAR
STARTCHAR CAPITAL LETTER Q
ENCODING 81
SWIDTH 500 0
DWIDTH 8 0
BBX 8 16 0 -2
BITMAP
00
00
00
00
3c
42
42
42
42
42
42
5a
66
3c
03
00
ENDCHAR
STARTCHAR CAPITAL LETTER R
ENCODING 82
SWIDTH 500 0
DWIDTH 8 0
BBX 8 16 0 -2
BITMAP
00
00
00
00
7c
42
42
42
7c
48
44
44
42
42
00
00
ENDCHAR
STARTCHAR CAPITAL LETTER S
ENCODING 83
SWIDTH 500 0
DWIDTH 8 0
BBX 8 16 0 -2
BITMAP
00
00
00
00
3c
42
42
40
30
0c
02
42
42
3c
00
00
ENDCHAR
STARTCHAR CAPITAL LETTER T
ENCODING 84
SWIDTH 500 0
DWIDTH 8 0
BBX 8 16 0 -2
BITMAP
00
00
00
00
7f
08
08
08
08
08
08
08
08
08
00
00
ENDCHAR
STARTCHAR CAPITAL LETTER U
ENCODING 85
SWIDTH 500 0
DWIDTH 8 0
BBX 8 16 0 -2
BITMAP
00
00
00
00
42
42
42
42
42
42
42
42
42
3c
00
00
ENDCHAR
STARTCHAR CAPITAL LETTER V
ENCODING 86
SWIDTH 500 0
DWIDTH 8 0
BBX 8 16 0 -2
BITMAP
00
00
00
00
41
41
41
22
22
22
14
14
08
08
00
00
ENDCHAR
STARTCHAR CAPITAL LETTER W
ENCODING 87
SWIDTH 500 0
DWIDTH 8 0
BBX 8 16 0 -2
BITMAP
00
00
00
00
42
42
42
42
5a
5a
66
66
42
42
00
00
ENDCHAR
STARTCHAR CAPITAL LETTER X
ENCODING 88
SWIDTH 500 0
DWIDTH 8 0
BBX 8 16 0 -2
BITMAP
00
00
00
00
42
42
24
24
18
18
24
24
42
42
00
00
ENDCHAR
STARTCHAR CAPITAL LETTER Y
ENCODING 89
SWIDTH 500 0
DWIDTH 8 0
BBX 8 16 0 -2
BITMAP
00
00
00
00
41
41
22
22
14
08
08
08
08
08
00
00
ENDCHAR
STARTCHAR CAPITAL LETTER Z
ENCODING 90
SWIDTH 500 0
DWIDTH 8 0
BBX 8 16 0 -2
BITMAP
00
00
00
00
7e
02
02
04
08
10
20
40
40
7e
00
00
ENDCHAR
STARTCHAR LEFT SQUARE BRACKET
ENCODING 91
SWIDTH 500 0
DWIDTH 8 0
BBX 8 16 0 -2
BITMAP
00
00
00
0e
08
08
08
08
08
08
08
08
08
08
0e
00
ENDCHAR
STARTCHAR REVERSE SOLIDUS
ENCODING 92
SWIDTH 500 0
DWIDTH 8 0
BBX 8 16 0 -2
BITMAP
00
00
00
00
40
40
20
10
10
08
08
04
02
02
00
00
ENDCHAR
STARTCHAR RIGHT SQUARE BRACKET
ENCODING 93
SWIDTH 500 0
DWIDTH 8 0
BBX 8 16 0 -2
BITMAP
00
00
00
70
10
10
10
10
10
10
10
10
10
10
70
00
ENDCHAR
STARTCHAR CIRCUMFLEX ACCENT
ENCODING 94
SWIDTH 500 0
DWIDTH 8 0
BBX 8 16 0 -2
BITMAP
00
00
18
24
42
00
00
00
00
00
00
00
00
00
00
00
ENDCHAR
STARTCHAR LOW LINE
ENCODING 95
SWIDTH 500 0
DWIDTH 8 0
BBX 8 16 0 -2
BITMAP
00
00
00
00
00
00
00
00
00
00
00
00
00
00
7f
00
ENDCHAR
STARTCHAR GRAVE ACCENT
ENCODING 96
SWIDTH 500 0
DWIDTH 8 0
BBX 8 16 0 -2
BITMAP
00
00
18
10
10
08
00
00
00
00
00
00
00
00
00
00
ENDCHAR
STARTCHAR SMALL LETTER a
ENCODING 97
SWIDTH 500 0
DWIDTH 8 0
BBX 8 16 0 -2
BITMAP
00
00
00
00
00
00
3c
42
02
3e
42
42
46
3a
00
00
ENDCHAR
STARTCHAR SMALL LETTER b
ENCODING 98
SWIDTH 500 0
DWIDTH 8 0
BBX 8 16 0 -2
BITMAP
00
00
00
40
40
40
5c
62
42
42
42
42
62
5c
00
00
ENDCHAR
STARTCHAR SMALL LETTER c
ENCODING 99
SWIDTH 500 0
DWIDTH 8 0
BBX 8 16 0 -2
BITMAP
00
00
00
00
00
00
3c
42
40
40
40
40
42
3c
00
00
ENDCHAR
STARTCHAR SMALL LETTER d
ENCODING 100
SWIDTH 500 0
DWIDTH 8 0
BBX 8 16 0 -2
BITMAP
00
00
00
02
02
02
3a
46
42
42
42
42
46
3a
00
00
ENDCHAR
STARTCHAR SMALL LETTER e
ENCODING 101
SWIDTH 500 0
DWIDTH 8 0
BBX 8 16 0 -2
BITMAP
00
00
00
00
00
00
3c
42
42
7e
40
40
42
3c
00
00
ENDCHAR
STARTCHAR SMALL LETTER f
ENCODING 102
SWIDTH 500 0
DWIDTH 8 0
BBX 8 16 0 -2
BITMAP
00
00
00
0c
10
10
10
7c
10
10
10
10
10
10
00
00
ENDCHAR
STARTCHAR SMALL LETTER g
ENCODING 103
SWIDTH 500 0
DWIDTH 8 0
BBX 8 16 0 -2
BITMAP
00
00
00
00
00
02
3a
44
44
44
38
20
3c
42
42
3c
ENDCHAR
STARTCHAR SMALL LETTER h
ENCODING 104
SWIDTH 500 0
DWIDTH 8 0
BBX 8 16 0 -2
BITMAP
00
00
00
40
40
40
5c
62
42
42
42
42
42
42
00
00
ENDCHAR
STARTCHAR SMALL LETTER i
ENCODING 105
SWIDTH 500 0
DWIDTH 8 0
BBX 8 16 0 -2
BITMAP
00
00
00
08
08
00
18
08
08
08
08
08
08
3e
00
00
ENDCHAR
STARTCHAR SMALL LETTER j
ENCODING 106
SWIDTH 500 0
DWIDTH 8 0
BBX 8 16 0 -2
BITMAP
00
00
00
04
04
00
0c
04
04
04
04
04
04
04
48
30
ENDCHAR
STARTCHAR SMALL LETTER k
ENCODING 107
SWIDTH 500 0
DWIDTH 8 0
BBX 8 16 0 -2
BITMAP
00
00
00
00
40
40
44
48
50
60
50
48
44
42
00
00
ENDCHAR
STARTCHAR SMALL LETTER l
ENCODING 108
SWIDTH 500 0
DWIDTH 8 0
BBX 8 16 0 -2
BITMAP
00
00
00
00
18
08
08
08
08
08
08
08
08
3e
00
00
ENDCHAR
STARTCHAR SMALL LETTER m
ENCODING 109
SWIDTH 500 0
DWIDTH 8 0
BBX 8 16 0 -2
BITMAP
00
00
00
00
00
00
76
49
49
49
49
49
49
49
00
00
ENDCHAR
STARTCHAR SMALL LETTER n
ENCODING 110
SWIDTH 500 0
DWIDTH 8 0
BBX 8 16 0 -2
BITMAP
00
00
00
00
00
00
5c
62
42
42
42
42
42
42
00
00
ENDCHAR
STARTCHAR SMALL LETTER o
ENCODING 111
SWIDTH 500 0
DWIDTH 8 0
BBX 8 16 0 -2
BITMAP
00
00
00
00
00
00
3c
42
42
42
42
42
42
3c
00
00
ENDCHAR
STARTCHAR SMALL LETTER p
ENCODING 112
SWIDTH 500 0
DWIDTH 8 0
BBX 8 16 0 -2
BITMAP
00
00
00
00
00
00
5c
62
42
42
42
42
62
5c
40
40
ENDCHAR
STARTCHAR SMALL LETTER q
ENCODING 113
SWIDTH 500 0
DWIDTH 8 0
BBX 8 16 0 -2
BITMAP
00
00
00
00
00
00
3a
46
42
42
42
42
46
3a
02
02
ENDCHAR
STARTCHAR SMALL LETTER r
ENCODING 114
SWIDTH 500 0
DWIDTH 8 0
BBX 8 16 0 -2
BITMAP
00
00
00
00
00
00
5c
62
42
40
40
40
40
40
00
00
ENDCHAR
STARTCHAR SMALL LETTER s
ENCODING 115
SWIDTH 500 0
DWIDTH 8 0
BBX 8 16 0 -2
BITMAP
00
00
00
00
00
00
3c
42
40
30
0c
02
42
3c
00
00
ENDCHAR
STARTCHAR SMALL LETTER t
ENCODING 116
SWIDTH 500 0
DWIDTH 8 0
BBX 8 16 0 -2
BITMAP
00
00
00
00
10
10
7c
10
10
10
10
10
10
0c
00
00
ENDCHAR
STARTCHAR SMALL LETTER u
ENCODING 117
SWIDTH 500 0
DWIDTH 8 0
BBX 8 16 0 -2
BITMAP
00
00
00
00
00
00
42
42
42
42
42
42
46
3a
00
00
ENDCHAR
STARTCHAR SMALL LETTER v
ENCODING 118
SWIDTH 500 0
DWIDTH 8 0
BBX 8 16 0 -2
BITMAP
00
00
00
00
00
00
42
42
42
24
24
24
18
18
00
00
ENDCHAR
STARTCHAR SMALL LETTER w
ENCODING 119
SWIDTH 500 0
DWIDTH 8 0
BBX 8 16 0 -2
BITMAP
00
00
00
00
00
00
41
49
49
49
49
49
49
36
00
00
ENDCHAR
STARTCHAR SMALL LETTER x
ENCODING 120
SWIDTH 500 0
DWIDTH 8 0
BBX 8 16 0 -2
BITMAP
00
00
00
00
00
00
42
42
24
18
18
24
42
42
00
00
ENDCHAR
STARTCHAR SMALL LETTER y
ENCODING 121
SWIDTH 500 0
DWIDTH 8 0
BBX 8 16 0 -2
BITMAP
00
00
00
00
00
00
42
42
42
42
42
26
1a
02
02
3c
ENDCHAR
STARTCHAR SMALL LETTER z
ENCODING 122
SWIDTH 500 0
DWIDTH 8 0
BBX 8 16 0 -2
BITMAP
00
00
00
00
00
00
7e
02
04
08
10
20
40
7e
00
00
ENDCHAR
STARTCHAR LEFT CURLY BRACKET
ENCODING 123
SWIDTH 500 0
DWIDTH 8 0
BBX 8 16 0 -2
BITMAP
00
00
00
0c
10
10
08
08
10
10
08
08
10
10
0c
00
ENDCHAR
STARTCHAR VERTICAL LINE
ENCODING 124
SWIDTH 500 0
DWIDTH 8 0
BBX 8 16 0 -2
BITMAP
00
00
08
08
08
08
08
08
08
08
08
08
08
08
08
08
ENDCHAR
STARTCHAR RIGHT CURLY BRACKET
ENCODING 125
SWIDTH 500 0
DWIDTH 8 0
BBX 8 16 0 -2
BITMAP
00
00
00
30
08
08
10
10
08
08
10
10
08
08
30
00
ENDCHAR
STARTCHAR TILDE
ENCODING 126
SWIDTH 500 0
DWIDTH 8 0
BBX 8 16 0 -2
BITMAP
00
00
00
31
49
46
00
00
00
00
00
00
00
00
00
00
ENDCHAR
STARTCHAR CAPITAL LETTER A
ENCODING 128
SWIDTH 500 0
DWIDTH 8 0
BBX 8 16 0 -2
BITMAP
00
00
00
00
18
24
24
42
42
7e
42
42
42
42
00
18
ENDCHAR
STARTCHAR CAPITAL LETTER A
ENCODING 129
SWIDTH 500 0
DWIDTH 8 0
BBX 8 16 0 -2
BITMAP
08
10
42
24
18
24
24
42
42
7e
42
42
42
42
00
00
ENDCHAR
STARTCHAR CAPITAL LETTER A
ENCODING 130
SWIDTH 500 0
DWIDTH 8 0
BBX 8 16 0 -2
BITMAP
10
08
42
24
18
24
24
42
42
7e
42
42
42
42
00
00
ENDCHAR
STARTCHAR CAPITAL LETTER A
ENCODING 131
SWIDTH 500 0
DWIDTH 8 0
BBX 8 16 0 -2
BITMAP
00
00
42
24
18
24
24
42
42
7e
42
42
42
42
00
18
ENDCHAR
STARTCHAR CAPITAL LETTER A
ENCODING 132
SWIDTH 500 0
DWIDTH 8 0
BBX 8 16 0 -2
BITMAP
20
40
18
24
5a
24
24
42
42
7e
42
42
42
42
00
00
ENDCHAR
STARTCHAR CAPITAL LETTER A
ENCODING 133
SWIDTH 500 0
DWIDTH 8 0
BBX 8 16 0 -2
BITMAP
04
02
18
24
5a
24
24
42
42
7e
42
42
42
42
00
00
ENDCHAR
STARTCHAR CAPITAL LETTER A
ENCODING 134
SWIDTH 500 0
DWIDTH 8 0
BBX 8 16 0 -2
BITMAP
0e
02
1c
24
5a
24
24
42
42
7e
42
42
42
42
00
00
ENDCHAR
STARTCHAR CAPITAL LETTER A
ENCODING 135
SWIDTH 500 0
DWIDTH 8 0
BBX 8 16 0 -2
BITMAP
00
00
18
24
5a
24
24
42
42
7e
42
42
42
42
00
18
ENDCHAR
STARTCHAR CAPITAL LETTER E
ENCODING 136
SWIDTH 500 0
DWIDTH 8 0
BBX 8 16 0 -2
BITMAP
00
32
4c
00
7e
40
40
40
7c
40
40
40
40
7e
00
00
ENDCHAR
STARTCHAR CAPITAL LETTER E
ENCODING 137
SWIDTH 500 0
DWIDTH 8 0
BBX 8 16 0 -2
BITMAP
00
00
00
00
7e
40
40
40
7c
40
40
40
40
7e
00
18
ENDCHAR
STARTCHAR CAPITAL LETTER E
ENCODING 138
SWIDTH 500 0
DWIDTH 8 0
BBX 8 16 0 -2
BITMAP
20
40
18
24
7e
40
40
40
7c
40
40
40
40
7e
00
00
ENDCHAR
STARTCHAR CAPITAL LETTER E
ENCODING 139
SWIDTH 500 0
DWIDTH 8 0
BBX 8 16 0 -2
BITMAP
04
02
18
24
7e
40
40
40
7c
40
40
40
40
7e
00
00
ENDCHAR
STARTCHAR CAPITAL LETTER E
ENCODING 140
SWIDTH 500 0
DWIDTH 8 0
BBX 8 16 0 -2
BITMAP
0e
02
1c
24
7e
40
40
40
7c
40
40
40
40
7e
00
00
ENDCHAR
STARTCHAR CAPITAL LETTER E
ENCODING 141
SWIDTH 500 0
DWIDTH 8 0
BBX 8 16 0 -2
BITMAP
32
4c
18
24
7e
40
40
40
7c
40
40
40
40
7e
00
00
ENDCHAR
STARTCHAR CAPITAL LETTER E
ENCODING 142
SWIDTH 500 0
DWIDTH 8 0
BBX 8 16 0 -2
BITMAP
00
00
18
24
7e
40
40
40
7c
40
40
40
40
7e
00
18
ENDCHAR
STARTCHAR CAPITAL LETTER O
ENCODING 143
SWIDTH 500 0
DWIDTH 8 0
BBX 8 16 0 -2
BITMAP
20
40
18
24
7e
42
42
42
42
42
42
42
42
3c
00
00
ENDCHAR
STARTCHAR CAPITAL LETTER O
ENCODING 144
SWIDTH 500 0
DWIDTH 8 0
BBX 8 16 0 -2
BITMAP
04
02
18
24
7e
42
42
42
42
42
42
42
42
3c
00
00
ENDCHAR
STARTCHAR CAPITAL LETTER O
ENCODING 145
SWIDTH 500 0
DWIDTH 8 0
BBX 8 16 0 -2
BITMAP
0e
02
1c
24
7e
42
42
42
42
42
42
42
42
3c
00
00
ENDCHAR
STARTCHAR CAPITAL LETTER O
ENCODING 146
SWIDTH 500 0
DWIDTH 8 0
BBX 8 16 0 -2
BITMAP
32
4c
18
24
7e
42
42
42
42
42
42
42
42
3c
00
00
ENDCHAR
STARTCHAR CAPITAL LETTER O
ENCODING 147
SWIDTH 500 0
DWIDTH 8 0
BBX 8 16 0 -2
BITMAP
00
00
18
24
7e
42
42
42
42
42
42
42
42
3c
00
18
ENDCHAR
STARTCHAR CAPITAL LETTER O
ENCODING 148
SWIDTH 500 0
DWIDTH 8 0
BBX 8 16 0 -2
BITMAP
00
00
03
01
3e
42
42
42
42
42
42
42
42
3c
00
18
ENDCHAR
STARTCHAR CAPITAL LETTER O
ENCODING 149
SWIDTH 500 0
DWIDTH 8 0
BBX 8 16 0 -2
BITMAP
08
10
03
01
3e
42
42
42
42
42
42
42
42
3c
00
00
ENDCHAR
STARTCHAR CAPITAL LETTER O
ENCODING 150
SWIDTH 500 0
DWIDTH 8 0
BBX 8 16 0 -2
BITMAP
10
08
03
01
3e
42
42
42
42
42
42
42
42
3c
00
00
ENDCHAR
STARTCHAR CAPITAL LETTER O
ENCODING 151
SWIDTH 500 0
DWIDTH 8 0
BBX 8 16 0 -2
BITMAP
1c
04
0b
01
3e
42
42
42
42
42
42
42
42
3c
00
00
ENDCHAR
STARTCHAR CAPITAL LETTER I
ENCODING 152
SWIDTH 500 0
DWIDTH 8 0
BBX 8 16 0 -2
BITMAP
00
00
00
00
3e
08
08
08
08
08
08
08
08
3e
00
18
ENDCHAR
STARTCHAR CAPITAL LETTER O
ENCODING 153
SWIDTH 500 0
DWIDTH 8 0
BBX 8 16 0 -2
BITMAP
1c
04
08
00
3c
42
42
42
42
42
42
42
42
3c
00
00
ENDCHAR
STARTCHAR CAPITAL LETTER O
ENCODING 154
SWIDTH 500 0
DWIDTH 8 0
BBX 8 16 0 -2
BITMAP
00
00
00
00
3c
42
42
42
42
42
42
42
42
3c
00
18
ENDCHAR
STARTCHAR CAPITAL LETTER I
ENCODING 155
SWIDTH 500 0
DWIDTH 8 0
BBX 8 16 0 -2
BITMAP
1c
04
08
00
3e
08
08
08
08
08
08
08
08
3e
00
00
ENDCHAR
STARTCHAR CAPITAL LETTER U
ENCODING 156
SWIDTH 500 0
DWIDTH 8 0
BBX 8 16 0 -2
BITMAP
1c
04
08
00
42
42
42
42
42
42
42
42
42
3c
00
00
ENDCHAR
STARTCHAR CAPITAL LETTER U
ENCODING 157
SWIDTH 500 0
DWIDTH 8 0
BBX 8 16 0 -2
BITMAP
32
4c
00
00
42
42
42
42
42
42
42
42
42
3c
00
00
ENDCHAR
STARTCHAR CAPITAL LETTER U
ENCODING 158
SWIDTH 500 0
DWIDTH 8 0
BBX 8 16 0 -2
BITMAP
00
00
00
00
42
42
42
42
42
42
42
42
42
3c
00
18
ENDCHAR
STARTCHAR CAPITAL LETTER Y
ENCODING 159
SWIDTH 500 0
DWIDTH 8 0
BBX 8 16 0 -2
BITMAP
10
08
00
00
41
41
22
22
14
08
08
08
08
08
00
00
ENDCHAR
STARTCHAR CAPITAL LETTER O
ENCODING 160
SWIDTH 500 0
DWIDTH 8 0
BBX 8 16 0 -2
BITMAP
32
4c
00
00
3c
42
42
42
42
42
42
42
42
3c
00
00
ENDCHAR
STARTCHAR SMALL LETTER a
ENCODING 161
SWIDTH 500 0
DWIDTH 8 0
BBX 8 16 0 -2
BITMAP
08
10
00
42
24
18
3c
42
02
3e
42
42
46
3a
00
00
ENDCHAR
STARTCHAR SMALL LETTER a
ENCODING 162
SWIDTH 500 0
DWIDTH 8 0
BBX 8 16 0 -2
BITMAP
10
08
00
42
24
18
3c
42
02
3e
42
42
46
3a
00
00
ENDCHAR
STARTCHAR SMALL LETTER a
ENCODING 163
SWIDTH 500 0
DWIDTH 8 0
BBX 8 16 0 -2
BITMAP
00
00
00
42
24
18
3c
42
02
3e
42
42
46
3a
00
18
ENDCHAR
STARTCHAR SMALL LETTER a
ENCODING 164
SWIDTH 500 0
DWIDTH 8 0
BBX 8 16 0 -2
BITMAP
08
10
00
18
24
42
3c
42
02
3e
42
42
46
3a
00
00
ENDCHAR
STARTCHAR SMALL LETTER a
ENCODING 165
SWIDTH 500 0
DWIDTH 8 0
BBX 8 16 0 -2
BITMAP
10
08
00
18
24
42
3c
42
02
3e
42
42
46
3a
00
00
ENDCHAR
STARTCHAR SMALL LETTER a
ENCODING 166
SWIDTH 500 0
DWIDTH 8 0
BBX 8 16 0 -2
BITMAP
1c
04
08
18
24
42
3c
42
02
3e
42
42
46
3a
00
00
ENDCHAR
STARTCHAR SMALL LETTER a
ENCODING 167
SWIDTH 500 0
DWIDTH 8 0
BBX 8 16 0 -2
BITMAP
00
00
00
18
24
42
3c
42
02
3e
42
42
46
3a
00
18
ENDCHAR
STARTCHAR SMALL LETTER e
ENCODING 168
SWIDTH 500 0
DWIDTH 8 0
BBX 8 16 0 -2
BITMAP
00
00
00
32
4c
00
3c
42
42
7e
40
40
42
3c
00
00
ENDCHAR
STARTCHAR SMALL LETTER e
ENCODING 169
SWIDTH 500 0
DWIDTH 8 0
BBX 8 16 0 -2
BITMAP
00
00
00
00
00
00
3c
42
42
7e
40
40
42
3c
00
18
ENDCHAR
STARTCHAR SMALL LETTER e
ENCODING 170
SWIDTH 500 0
DWIDTH 8 0
BBX 8 16 0 -2
BITMAP
08
10
00
18
24
42
3c
42
42
7e
40
40
42
3c
00
00
ENDCHAR
STARTCHAR SMALL LETTER e
ENCODING 171
SWIDTH 500 0
DWIDTH 8 0
BBX 8 16 0 -2
BITMAP
10
08
00
18
24
42
3c
42
42
7e
40
40
42
3c
00
00
ENDCHAR
STARTCHAR SMALL LETTER e
ENCODING 172
SWIDTH 500 0
DWIDTH 8 0
BBX 8 16 0 -2
BITMAP
1c
04
08
18
24
42
3c
42
42
7e
40
40
42
3c
00
00
ENDCHAR
STARTCHAR SMALL LETTER e
ENCODING 173
SWIDTH 500 0
DWIDTH 8 0
BBX 8 16 0 -2
BITMAP
32
4c
00
18
24
42
3c
42
42
7e
40
40
42
3c
00
00
ENDCHAR
STARTCHAR SMALL LETTER e
ENCODING 174
SWIDTH 500 0
DWIDTH 8 0
BBX 8 16 0 -2
BITMAP
00
00
00
18
24
42
3c
42
42
7e
40
40
42
3c
00
18
ENDCHAR
STARTCHAR SMALL LETTER o
ENCODING 175
SWIDTH 500 0
DWIDTH 8 0
BBX 8 16 0 -2
BITMAP
08
10
00
18
24
42
3c
42
42
42
42
42
42
3c
00
00
ENDCHAR
STARTCHAR SMALL LETTER o
ENCODING 176
SWIDTH 500 0
DWIDTH 8 0
BBX 8 16 0 -2
BITMAP
10
08
00
18
24
42
3c
42
42
42
42
42
42
3c
00
00
ENDCHAR
STARTCHAR SMALL LETTER o
ENCODING 177
SWIDTH 500 0
DWIDTH 8 0
BBX 8 16 0 -2
BITMAP
1c
04
08
18
24
42
3c
42
42
42
42
42
42
3c
00
00
ENDCHAR
STARTCHAR SMALL LETTER o
ENCODING 178
SWIDTH 500 0
DWIDTH 8 0
BBX 8 16 0 -2
BITMAP
32
4c
00
18
24
42
3c
42
42
42
42
42
42
3c
00
00
ENDCHAR
STARTCHAR CAPITAL LETTER O
ENCODING 179
SWIDTH 500 0
DWIDTH 8 0
BBX 8 16 0 -2
BITMAP
32
4c
03
01
3e
42
42
42
42
42
42
42
42
3c
00
00
ENDCHAR
STARTCHAR CAPITAL LETTER O
ENCODING 180
SWIDTH 500 0
DWIDTH 8 0
BBX 8 16 0 -2
BITMAP
00
00
03
01
3e
42
42
42
42
42
42
42
42
3c
00
00
ENDCHAR
STARTCHAR SMALL LETTER o
ENCODING 181
SWIDTH 500 0
DWIDTH 8 0
BBX 8 16 0 -2
BITMAP
00
00
00
18
24
42
3c
42
42
42
42
42
42
3c
00
18
ENDCHAR
STARTCHAR SMALL LETTER o
ENCODING 182
SWIDTH 500 0
DWIDTH 8 0
BBX 8 16 0 -2
BITMAP
00
00
10
08
03
01
3e
42
42
42
42
42
42
3c
00
00
ENDCHAR
STARTCHAR SMALL LETTER o
ENCODING 183
SWIDTH 500 0
DWIDTH 8 0
BBX 8 16 0 -2
BITMAP
00
1c
04
08
03
01
3e
42
42
42
42
42
42
3c
00
00
ENDCHAR
STARTCHAR SMALL LETTER i
ENCODING 184
SWIDTH 500 0
DWIDTH 8 0
BBX 8 16 0 -2
BITMAP
00
00
00
08
08
00
18
08
08
08
08
08
08
3e
00
18
ENDCHAR
STARTCHAR CAPITAL LETTER U
ENCODING 185
SWIDTH 500 0
DWIDTH 8 0
BBX 8 16 0 -2
BITMAP
00
00
03
01
42
42
42
42
42
42
42
42
42
3c
00
18
ENDCHAR
STARTCHAR CAPITAL LETTER U
ENCODING 186
SWIDTH 500 0
DWIDTH 8 0
BBX 8 16 0 -2
BITMAP
08
10
03
01
42
42
42
42
42
42
42
42
42
3c
00
00
ENDCHAR
STARTCHAR CAPITAL LETTER U
ENCODING 187
SWIDTH 500 0
DWIDTH 8 0
BBX 8 16 0 -2
BITMAP
10
08
03
01
42
42
42
42
42
42
42
42
42
3c
00
00
ENDCHAR
STARTCHAR CAPITAL LETTER U
ENCODING 188
SWIDTH 500 0
DWIDTH 8 0
BBX 8 16 0 -2
BITMAP
1c
04
0b
01
42
42
42
42
42
42
42
42
42
3c
00
00
ENDCHAR
STARTCHAR SMALL LETTER o
ENCODING 189
SWIDTH 500 0
DWIDTH 8 0
BBX 8 16 0 -2
BITMAP
00
00
00
00
03
01
3e
42
42
42
42
42
42
3c
00
00
ENDCHAR
STARTCHAR SMALL LETTER o
ENCODING 190
SWIDTH 500 0
DWIDTH 8 0
BBX 8 16 0 -2
BITMAP
00
00
08
10
03
01
3e
42
42
42
42
42
42
3c
00
00
ENDCHAR
STARTCHAR CAPITAL LETTER U
ENCODING 191
SWIDTH 500 0
DWIDTH 8 0
BBX 8 16 0 -2
BITMAP
00
00
03
01
42
42
42
42
42
42
42
42
42
3c
00
00
ENDCHAR
STARTCHAR CAPITAL LETTER A
ENCODING 192
SWIDTH 500 0
DWIDTH 8 0
BBX 8 16 0 -2
BITMAP
00
10
08
00
18
24
24
42
42
7e
42
42
42
42
00
00
ENDCHAR
STARTCHAR CAPITAL LETTER A
ENCODING 193
SWIDTH 500 0
DWIDTH 8 0
BBX 8 16 0 -2
BITMAP
00
08
10
00
18
24
24
42
42
7e
42
42
42
42
00
00
ENDCHAR
STARTCHAR CAPITAL LETTER A
ENCODING 194
SWIDTH 500 0
DWIDTH 8 0
BBX 8 16 0 -2
BITMAP
00
18
24
42
18
24
24
42
42
7e
42
42
42
42
00
00
ENDCHAR
STARTCHAR CAPITAL LETTER A
ENCODING 195
SWIDTH 500 0
DWIDTH 8 0
BBX 8 16 0 -2
BITMAP
00
32
4c
00
18
24
24
42
42
7e
42
42
42
42
00
00
ENDCHAR
STARTCHAR CAPITAL LETTER A
ENCODING 196
SWIDTH 500 0
DWIDTH 8 0
BBX 8 16 0 -2
BITMAP
00
1c
04
08
18
24
24
42
42
7e
42
42
42
42
00
00
ENDCHAR
STARTCHAR CAPITAL LETTER A
ENCODING 197
SWIDTH 500 0
DWIDTH 8 0
BBX 8 16 0 -2
BITMAP
00
42
24
18
18
24
24
42
42
7e
42
42
42
42
00
00
ENDCHAR
STARTCHAR SMALL LETTER a
ENCODING 198
SWIDTH 500 0
DWIDTH 8 0
BBX 8 16 0 -2
BITMAP
1c
04
08
42
24
18
3c
42
02
3e
42
42
46
3a
00
00
ENDCHAR
STARTCHAR SMALL LETTER a
ENCODING 199
SWIDTH 500 0
DWIDTH 8 0
BBX 8 16 0 -2
BITMAP
32
4c
00
42
24
18
3c
42
02
3e
42
42
46
3a
00
00
ENDCHAR
STARTCHAR CAPITAL LETTER E
ENCODING 200
SWIDTH 500 0
DWIDTH 8 0
BBX 8 16 0 -2
BITMAP
00
10
08
00
7e
40
40
40
7c
40
40
40
40
7e
00
00
ENDCHAR
STARTCHAR CAPITAL LETTER E
ENCODING 201
SWIDTH 500 0
DWIDTH 8 0
BBX 8 16 0 -2
BITMAP
00
08
10
00
7e
40
40
40
7c
40
40
40
40
7e
00
00
ENDCHAR
STARTCHAR CAPITAL LETTER E
ENCODING 202
SWIDTH 500 0
DWIDTH 8 0
BBX 8 16 0 -2
BITMAP
00
18
24
42
7e
40
40
40
7c
40
40
40
40
7e
00
00
ENDCHAR
STARTCHAR CAPITAL LETTER E
ENCODING 203
SWIDTH 500 0
DWIDTH 8 0
BBX 8 16 0 -2
BITMAP
00
1c
04
08
7e
40
40
40
7c
40
40
40
40
7e
00
00
ENDCHAR
STARTCHAR CAPITAL LETTER I
ENCODING 204
SWIDTH 500 0
DWIDTH 8 0
BBX 8 16 0 -2
BITMAP
00
08
10
00
3e
08
08
08
08
08
08
08
08
3e
00
00
ENDCHAR
STARTCHAR CAPITAL LETTER I
ENCODING 205
SWIDTH 500 0
DWIDTH 8 0
BBX 8 16 0 -2
BITMAP
00
10
08
00
3e
08
08
08
08
08
08
08
08
3e
00
00
ENDCHAR
STARTCHAR CAPITAL LETTER I
ENCODING 206
SWIDTH 500 0
DWIDTH 8 0
BBX 8 16 0 -2
BITMAP
00
32
4c
00
3e
08
08
08
08
08
08
08
08
3e
00
00
ENDCHAR
STARTCHAR SMALL LETTER y
ENCODING 207
SWIDTH 500 0
DWIDTH 8 0
BBX 8 16 0 -2
BITMAP
00
00
00
10
08
00
42
42
42
42
42
26
1a
02
02
3c
ENDCHAR
STARTCHAR CAPITAL LETTER D
ENCODING 208
SWIDTH 500 0
DWIDTH 8 0
BBX 8 16 0 -2
BITMAP
00
00
00
00
3c
22
21
21
79
21
21
21
22
3c
00
00
ENDCHAR
STARTCHAR SMALL LETTER u
ENCODING 209
SWIDTH 500 0
DWIDTH 8 0
BBX 8 16 0 -2
BITMAP
00
00
08
10
03
01
42
42
42
42
42
42
46
3a
00
00
ENDCHAR
STARTCHAR CAPITAL LETTER O
ENCODING 210
SWIDTH 500 0
DWIDTH 8 0
BBX 8 16 0 -2
BITMAP
00
10
08
00
3c
42
42
42
42
42
42
42
42
3c
00
00
ENDCHAR
STARTCHAR CAPITAL LETTER O
ENCODING 211
SWIDTH 500 0
DWIDTH 8 0
BBX 8 16 0 -2
BITMAP
00
08
10
00
3c
42
42
42
42
42
42
42
42
3c
00
00
ENDCHAR
STARTCHAR CAPITAL LETTER O
ENCODING 212
SWIDTH 500 0
DWIDTH 8 0
BBX 8 16 0 -2
BITMAP
00
18
24
42
3c
42
42
42
42
42
42
42
42
3c
00
00
ENDCHAR
STARTCHAR SMALL LETTER a
ENCODING 213
SWIDTH 500 0
DWIDTH 8 0
BBX 8 16 0 -2
BITMAP
00
00
00
00
00
00
3c
42
02
3e
42
42
46
3a
00
18
ENDCHAR
STARTCHAR SMALL LETTER y
ENCODING 214
SWIDTH 500 0
DWIDTH 8 0
BBX 8 16 0 -2
BITMAP
00
00
1c
04
08
00
42
42
42
42
42
26
1a
02
02
3c
ENDCHAR
STARTCHAR SMALL LETTER u
ENCODING 215
SWIDTH 500 0
DWIDTH 8 0
BBX 8 16 0 -2
BITMAP
00
00
10
08
03
01
42
42
42
42
42
42
46
3a
00
00
ENDCHAR
STARTCHAR SMALL LETTER u
ENCODING 216
SWIDTH 500 0
DWIDTH 8 0
BBX 8 16 0 -2
BITMAP
00
1c
04
08
03
01
42
42
42
42
42
42
46
3a
00
00
ENDCHAR
STARTCHAR CAPITAL LETTER U
ENCODING 217
SWIDTH 500 0
DWIDTH 8 0
BBX 8 16 0 -2
BITMAP
00
10
08
00
42
42
42
42
42
42
42
42
42
3c
00
00
ENDCHAR
STARTCHAR CAPITAL LETTER U
ENCODING 218
SWIDTH 500 0
DWIDTH 8 0
BBX 8 16 0 -2
BITMAP
00
08
10
00
42
42
42
42
42
42
42
42
42
3c
00
00
ENDCHAR
STARTCHAR SMALL LETTER y
ENCODING 219
SWIDTH 500 0
DWIDTH 8 0
BBX 8 16 0 -2
BITMAP
00
00
00
32
4c
00
42
42
42
42
42
26
1a
02
02
3c
ENDCHAR
STARTCHAR SMALL LETTER y
ENCODING 220
SWIDTH 500 0
DWIDTH 8 0
BBX 8 16 0 -2
BITMAP
00
00
00
00
00
00
42
42
42
42
42
26
1a
02
04
3b
ENDCHAR
STARTCHAR CAPITAL LETTER Y
ENCODING 221
SWIDTH 500 0
DWIDTH 8 0
BBX 8 16 0 -2
BITMAP
00
08
10
00
41
41
22
22
14
08
08
08
08
08
00
00
ENDCHAR
STARTCHAR SMALL LETTER o
ENCODING 222
SWIDTH 500 0
DWIDTH 8 0
BBX 8 16 0 -2
BITMAP
00
00
32
4c
03
01
3e
42
42
42
42
42
42
3c
00
00
ENDCHAR
STARTCHAR SMALL LETTER u
ENCODING 223
SWIDTH 500 0
DWIDTH 8 0
BBX 8 16 0 -2
BITMAP
00
00
00
00
03
01
42
42
42
42
42
42
46
3a
00
00
ENDCHAR
STARTCHAR SMALL LETTER a
ENCODING 224
SWIDTH 500 0
DWIDTH 8 0
BBX 8 16 0 -2
BITMAP
00
00
00
10
08
00
3c
42
02
3e
42
42
46
3a
00
00
ENDCHAR
STARTCHAR SMALL LETTER a
ENCODING 225
SWIDTH 500 0
DWIDTH 8 0
BBX 8 16 0 -2
BITMAP
00
00
00
08
10
00
3c
42
02
3e
42
42
46
3a
00
00
ENDCHAR
STARTCHAR SMALL LETTER a
ENCODING 226
SWIDTH 500 0
DWIDTH 8 0
BBX 8 16 0 -2
BITMAP
00
00
00
18
24
42
3c
42
02
3e
42
42
46
3a
00
00
ENDCHAR
STARTCHAR SMALL LETTER a
ENCODING 227
SWIDTH 500 0
DWIDTH 8 0
BBX 8 16 0 -2
BITMAP
00
00
00
32
4c
00
3c
42
02
3e
42
42
46
3a
00
00
ENDCHAR
STARTCHAR SMALL LETTER a
ENCODING 228
SWIDTH 500 0
DWIDTH 8 0
BBX 8 16 0 -2
BITMAP
00
00
1c
04
08
00
3c
42
02
3e
42
42
46
3a
00
00
ENDCHAR
STARTCHAR SMALL LETTER a
ENCODING 229
SWIDTH 500 0
DWIDTH 8 0
BBX 8 16 0 -2
BITMAP
00
00
00
42
24
18
3c
42
02
3e
42
42
46
3a
00
00
ENDCHAR
STARTCHAR SMALL LETTER u
ENCODING 230
SWIDTH 500 0
DWIDTH 8 0
BBX 8 16 0 -2
BITMAP
00
00
32
4c
03
01
42
42
42
42
42
42
46
3a
00
00
ENDCHAR
STARTCHAR SMALL LETTER a
ENCODING 231
SWIDTH 500 0
DWIDTH 8 0
BBX 8 16 0 -2
BITMAP
32
4c
00
18
24
42
3c
42
02
3e
42
42
46
3a
00
00
ENDCHAR
STARTCHAR SMALL LETTER e
ENCODING 232
SWIDTH 500 0
DWIDTH 8 0
BBX 8 16 0 -2
BITMAP
00
00
00
10
08
00
3c
42
42
7e
40
40
42
3c
00
00
ENDCHAR
STARTCHAR SMALL LETTER e
ENCODING 233
SWIDTH 500 0
DWIDTH 8 0
BBX 8 16 0 -2
BITMAP
00
00
00
08
10
00
3c
42
42
7e
40
40
42
3c
00
00
ENDCHAR
STARTCHAR SMALL LETTER e
ENCODING 234
SWIDTH 500 0
DWIDTH 8 0
BBX 8 16 0 -2
BITMAP
00
00
00
18
24
42
3c
42
42
7e
40
40
42
3c
00
00
ENDCHAR
STARTCHAR SMALL LETTER e
ENCODING 235
SWIDTH 500 0
DWIDTH 8 0
BBX 8 16 0 -2
BITMAP
00
00
1c
04
08
00
3c
42
42
7e
40
40
42
3c
00
00
ENDCHAR
STARTCHAR SMALL LETTER i
ENCODING 236
SWIDTH 500 0
DWIDTH 8 0
BBX 8 16 0 -2
BITMAP
00
00
00
10
08
00
18
08
08
08
08
08
08
3e
00
00
ENDCHAR
STARTCHAR SMALL LETTER i
ENCODING 237
SWIDTH 500 0
DWIDTH 8 0
BBX 8 16 0 -2
BITMAP
00
00
00
08
10
00
18
08
08
08
08
08
08
3e
00
00
ENDCHAR
STARTCHAR SMALL LETTER i
ENCODING 238
SWIDTH 500 0
DWIDTH 8 0
BBX 8 16 0 -2
BITMAP
00
00
00
32
4c
00
18
08
08
08
08
08
08
3e
00
00
ENDCHAR
STARTCHAR SMALL LETTER i
ENCODING 239
SWIDTH 500 0
DWIDTH 8 0
BBX 8 16 0 -2
BITMAP
00
00
1c
04
08
00
18
08
08
08
08
08
08
3e
00
00
ENDCHAR
STARTCHAR SMALL LETTER d
ENCODING 240
SWIDTH 500 0
DWIDTH 8 0
BBX 8 16 0 -2
BITMAP
00
00
00
02
0f
02
3a
46
42
42
42
42
46
3a
00
00
ENDCHAR
STARTCHAR SMALL LETTER u
ENCODING 241
SWIDTH 500 0
DWIDTH 8 0
BBX 8 16 0 -2
BITMAP
00
00
00
00
03
01
42
42
42
42
42
42
46
3a
00
18
ENDCHAR
STARTCHAR SMALL LETTER o
ENCODING 242
SWIDTH 500 0
DWIDTH 8 0
BBX 8 16 0 -2
BITMAP
00
00
00
10
08
00
3c
42
42
42
42
42
42
3c
00
00
ENDCHAR
STARTCHAR SMALL LETTER o
ENCODING 243
SWIDTH 500 0
DWIDTH 8 0
BBX 8 16 0 -2
BITMAP
00
00
00
08
10
00
3c
42
42
42
42
42
42
3c
00
00
ENDCHAR
STARTCHAR SMALL LETTER o
ENCODING 244
SWIDTH 500 0
DWIDTH 8 0
BBX 8 16 0 -2
BITMAP
00
00
00
18
24
42
3c
42
42
42
42
42
42
3c
00
00
ENDCHAR
STARTCHAR SMALL LETTER o
ENCODING 245
SWIDTH 500 0
DWIDTH 8 0
BBX 8 16 0 -2
BITMAP
00
00
00
32
4c
00
3c
42
42
42
42
42
42
3c
00
00
ENDCHAR
STARTCHAR SMALL LETTER o
ENCODING 246
SWIDTH 500 0
DWIDTH 8 0
BBX 8 16 0 -2
BITMAP
00
00
1c
04
08
00
3c
42
42
42
42
42
42
3c
00
00
ENDCHAR
STARTCHAR SMALL LETTER o
ENCODING 247
SWIDTH 500 0
DWIDTH 8 0
BBX 8 16 0 -2
BITMAP
00
00
00
00
00
00
3c
42
42
42
42
42
42
3c
00
18
ENDCHAR
STARTCHAR SMALL LETTER u
ENCODING 248
SWIDTH 500 0
DWIDTH 8 0
BBX 8 16 0 -2
BITMAP
00
00
00
00
00
00
42
42
42
42
42
42
46
3a
00
18
ENDCHAR
STARTCHAR SMALL LETTER u
ENCODING 249
SWIDTH 500 0
DWIDTH 8 0
BBX 8 16 0 -2
BITMAP
00
00
00
10
08
00
42
42
42
42
42
42
46
3a
00
00
ENDCHAR
STARTCHAR SMALL LETTER u
ENCODING 250
SWIDTH 500 0
DWIDTH 8 0
BBX 8 16 0 -2
BITMAP
00
00
00
08
10
00
42
42
42
42
42
42
46
3a
00
00
ENDCHAR
STARTCHAR SMALL LETTER u
ENCODING 251
SWIDTH 500 0
DWIDTH 8 0
BBX 8 16 0 -2
BITMAP
00
00
00
32
4c
00
42
42
42
42
42
42
46
3a
00
00
ENDCHAR
STARTCHAR SMALL LETTER u
ENCODING 252
SWIDTH 500 0
DWIDTH 8 0
BBX 8 16 0 -2
BITMAP
00
00
1c
04
08
00
42
42
42
42
42
42
46
3a
00
00
ENDCHAR
STARTCHAR SMALL LETTER y
ENCODING 253
SWIDTH 500 0
DWIDTH 8 0
BBX 8 16 0 -2
BITMAP
00
00
00
08
10
00
42
42
42
42
42
26
1a
02
02
3c
ENDCHAR
STARTCHAR SMALL LETTER o
ENCODING 254
SWIDTH 500 0
DWIDTH 8 0
BBX 8 16 0 -2
BITMAP
00
00
00
00
03
01
3e
42
42
42
42
42
42
3c
00
18
ENDCHAR
STARTCHAR CAPITAL LETTER U
ENCODING 255
SWIDTH 500 0
DWIDTH 8 0
BBX 8 16 0 -2
BITMAP
32
4c
03
01
42
42
42
42
42
42
42
42
42
3c
00
00
ENDCHAR
ENDFONT
